#!OML:ASF I:\Actors\actors\Patient Classification 2\Patient 1\Session 1\actor1.ASF
:FULLY-SPECIFIED
:DEGREES
449
root -0.405697 18.7235 6.24027 10.5049 -2.63489 -5.74356
lowerback 11.5992 0.325107 -0.570475
upperback 0.93671 0.412441 0.970662
thorax -5.53736 0.22652 1.27244
lowerneck -9.82711 -4.6113 -0.863936
upperneck 14.9661 -6.70026 3.47513
head 6.31184 -3.01792 0.683296
rclavicle -8.94531e-015 -3.18055e-015
rhumerus -87.0958 0.82255 -90.054
rradius 110.249
rwrist -0.627514
rhand 4.39781 -27.5433
rfingers 7.12502
rthumb 29.7954 -55.1674
lclavicle -8.94531e-015 -3.18055e-015
lhumerus -84.975 -8.9779 102.683
lradius 110.481
lwrist 11.1528
lhand -10.9774 -25.619
lfingers 7.12502
lthumb 15.0422 3.81455
rfemur -1.78945 -0.941865 18.0164
rtibia 7.95139e-015
rfoot -11.35 -10.9464
rtoes -9.98406
lfemur -18.6719 5.54668 -8.51794
ltibia 31.1956
lfoot -19.5159 2.67911
ltoes -57.4428
450
root -0.397637 18.724 6.24397 10.8281 -2.87206 -5.59617
lowerback 11.8266 0.322597 -0.779817
upperback 0.669704 0.373813 0.829508
thorax -5.94542 0.214497 1.24882
lowerneck -8.42572 -4.99862 -1.61609
upperneck 13.8259 -7.21787 4.47215
head 5.78831 -3.27706 1.12045
rclavicle 1.19271e-015 0
rhumerus -86.724 -3.74221 -88.661
rradius 110.055
rwrist 1.2772
rhand 5.64081 -28.4831
rfingers 7.12502
rthumb 30.981 -55.8881
lclavicle 1.19271e-015 0
lhumerus -84.4171 -5.68292 101.755
lradius 110.519
lwrist 12.8683
lhand -11.0988 -25.9567
lfingers 7.12502
lthumb 14.9254 3.48555
rfemur -2.16852 -0.749247 17.8202
rtibia 1.59028e-015
rfoot -11.5477 -10.9825
rtoes -9.68627
lfemur -18.9768 5.89614 -8.76501
ltibia 31.2131
lfoot -19.4756 2.52234
ltoes -57.3722
451
root -0.388762 18.7198 6.24348 11.0672 -3.06728 -5.45799
lowerback 12.0322 0.288581 -0.917025
upperback 0.45814 0.301498 0.702666
thorax -6.28244 0.184171 1.20527
lowerneck -7.02637 -5.31663 -2.25716
upperneck 12.7164 -7.63412 5.29003
head 5.27383 -3.50152 1.4936
rclavicle 1.15295e-014 2.06736e-014
rhumerus -86.4993 -7.72092 -87.5138
rradius 109.944
rwrist 1.99892
rhand 6.2315 -30.2293
rfingers 7.12502
rthumb 31.5439 -57.5257
lclavicle 1.15295e-014 2.06736e-014
lhumerus -83.771 -3.24949 100.862
lradius 111.114
lwrist 13.8185
lhand -11.1758 -23.5279
lfingers 7.12502
lthumb 14.8512 5.91984
rfemur -2.46591 -0.591729 17.6693
rtibia 3.18055e-015
rfoot -11.7883 -11.1362
rtoes -10.116
lfemur -19.1604 6.00557 -9.00818
ltibia 31.1708
lfoot -19.6596 2.62039
ltoes -57.3288
452
root -0.382397 18.7104 6.23652 11.2561 -3.20119 -5.41276
lowerback 11.9478 0.228976 -0.921858
upperback 0.45035 0.216543 0.613358
thorax -6.24053 0.141214 1.12859
lowerneck -5.81329 -5.60618 -2.82214
upperneck 11.6318 -7.99994 5.93512
head 4.79712 -3.71046 1.80214
rclavicle -6.75868e-015 3.18055e-015
rhumerus -86.1478 -10.8164 -86.9778
rradius 109.775
rwrist 1.05625
rhand 4.78904 -31.4088
rfingers 7.12502
rthumb 30.1687 -58.9654
lclavicle -6.75868e-015 3.18055e-015
lhumerus -82.9534 -1.84673 100.162
lradius 111.233
lwrist 14.5558
lhand -11.5642 -22.8707
lfingers 7.12502
lthumb 14.4769 6.60424
rfemur -2.70509 -0.471863 17.6513
rtibia -7.95139e-015
rfoot -12.0576 -11.2635
rtoes -10.7278
lfemur -19.3132 5.9914 -9.1444
ltibia 31.1094
lfoot -20.0137 2.85065
ltoes -57.2818
453
root -0.373367 18.6959 6.22555 11.3036 -3.36964 -5.46076
lowerback 11.9343 0.197603 -0.883235
upperback 0.496088 0.181358 0.632208
thorax -6.18353 0.122551 1.13254
lowerneck -4.8538 -5.90691 -3.35482
upperneck 10.7707 -8.37096 6.36265
head 4.42931 -3.92642 2.03156
rclavicle -1.59028e-014 1.51076e-014
rhumerus -85.687 -12.8864 -86.6832
rradius 109.491
rwrist 1.32727
rhand 4.04927 -31.6903
rfingers 7.12502
rthumb 29.4627 -59.3735
lclavicle -1.59028e-014 1.51076e-014
lhumerus -82.3715 -1.07024 99.7543
lradius 111.257
lwrist 14.2803
lhand -11.4739 -22.6183
lfingers 7.12502
lthumb 14.5639 6.85039
rfemur -2.80013 -0.295778 17.6984
rtibia 9.54166e-015
rfoot -12.3748 -11.2536
rtoes -10.4941
lfemur -19.3345 5.80199 -9.19288
ltibia 31.0818
lfoot -20.5026 3.33656
ltoes -57.2631
454
root -0.358148 18.6795 6.21154 11.2395 -3.51981 -5.50653
lowerback 12.0196 0.145769 -0.801194
upperback 0.590136 0.12572 0.675307
thorax -6.13024 0.0927712 1.14096
lowerneck -4.42241 -6.19643 -3.90475
upperneck 10.2707 -8.74093 6.77563
head 4.26554 -4.12665 2.24034
rclavicle 7.15625e-015 -3.97569e-015
rhumerus -85.4783 -12.882 -87.0101
rradius 109.47
rwrist 1.09066
rhand 0.0158394 -29.1344
rfingers 7.12502
rthumb 25.6055 -57.433
lclavicle 7.15625e-015 -3.97569e-015
lhumerus -82.1032 -1.9694 100.141
lradius 111.279
lwrist 13.9813
lhand -11.4772 -22.1903
lfingers 7.12502
lthumb 14.5608 7.27868
rfemur -2.80075 -0.138235 17.7004
rtibia 1.11319e-014
rfoot -12.5944 -11.197
rtoes -10.0557
lfemur -19.2882 5.31657 -9.24418
ltibia 31.1237
lfoot -21.0384 4.14739
ltoes -57.3116
455
root -0.342307 18.6654 6.18681 11.2803 -3.50504 -5.43666
lowerback 12.1077 0.0381823 -0.764827
upperback 0.681091 -0.0115204 0.6935
thorax -6.07979 0.0240764 1.163
lowerneck -4.55688 -6.48052 -4.48965
upperneck 9.93999 -9.11298 7.30865
head 4.2593 -4.30816 2.46994
rclavicle 2.18663e-014 9.54166e-015
rhumerus -85.4301 -11.0357 -87.9127
rradius 109.925
rwrist 0.650185
rhand 2.57571 -31.6906
rfingers 7.12502
rthumb 28.055 -59.613
lclavicle 2.18663e-014 9.54166e-015
lhumerus -82.1513 -4.48594 101.159
lradius 111.07
lwrist 13.8708
lhand -11.6578 -22.3238
lfingers 7.12502
lthumb 14.3867 7.15766
rfemur -2.94312 -0.173142 17.5851
rtibia 9.54166e-015
rfoot -12.619 -11.158
rtoes -9.98026
lfemur -19.4993 4.87875 -9.39886
ltibia 31.2408
lfoot -21.3191 4.77255
ltoes -57.4489
456
root -0.328437 18.6539 6.16014 11.4056 -3.52514 -5.3574
lowerback 12.0816 -0.0330354 -0.753592
upperback 0.804818 -0.102466 0.727605
thorax -5.93199 -0.0218182 1.20737
lowerneck -5.02735 -6.7662 -4.96993
upperneck 9.59948 -9.47284 7.75737
head 4.30102 -4.47559 2.64542
rclavicle -1.63003e-014 9.54166e-015
rhumerus -85.0174 -8.51618 -89.0522
rradius 110.529
rwrist 0.657181
rhand 3.43005 -31.697
rfingers 7.12502
rthumb 28.8714 -59.4828
lclavicle -1.63003e-014 9.54166e-015
lhumerus -82.4763 -7.77023 102.369
lradius 111.011
lwrist 13.5893
lhand -11.5487 -22.5832
lfingers 7.12502
lthumb 14.4918 6.89071
rfemur -3.19083 -0.181049 17.4419
rtibia 3.18055e-015
rfoot -12.4772 -11.1594
rtoes -10.0928
lfemur -19.818 4.6601 -9.53936
ltibia 31.3928
lfoot -21.4285 4.9783
ltoes -57.3455
457
root -0.316464 18.6436 6.1449 11.4151 -3.81817 -5.46427
lowerback 11.8684 -0.0153572 -0.633784
upperback 1.09812 -0.0597697 0.78846
thorax -5.50472 -0.00711477 1.19407
lowerneck -5.73611 -7.02689 -5.22649
upperneck 9.31404 -9.78335 7.96937
head 4.37665 -4.61456 2.70641
rclavicle -9.93923e-016 5.56597e-015
rhumerus -84.7114 -4.39847 -90.3369
rradius 110.438
rwrist 1.41655
rhand 4.99169 -29.8565
rfingers 7.12502
rthumb 30.362 -57.3776
lclavicle -9.93923e-016 5.56597e-015
lhumerus -82.9805 -11.8538 103.69
lradius 111.02
lwrist 13.3631
lhand -11.3309 -22.6927
lfingers 7.12502
lthumb 14.7017 6.76604
rfemur -5.11481 0.128488 17.4797
rtibia 3.63863
rfoot -13.6443 -10.0283
rtoes -10.5542
lfemur -19.8463 4.59748 -9.46436
ltibia 31.5151
lfoot -21.6358 4.99655
ltoes -56.8861
